<svg viewBox="0 0 80 80" xmlns="http://www.w3.org/2000/svg">
  <!-- Fondo transparente para mejor integración -->
  <rect width="80" height="80" fill="none"/>
  
  <!-- Corazón pixelado con degradado -->
  <g>
    <!-- Sombra base sutil -->
    <g fill="#c05070" opacity="0.15">
      <rect x="20" y="14" width="5" height="5"/>
      <rect x="55" y="14" width="5" height="5"/>
      <rect x="15" y="19" width="5" height="5"/>
      <rect x="60" y="19" width="5" height="5"/>
      <rect x="10" y="24" width="5" height="5"/>
      <rect x="65" y="24" width="5" height="5"/>
      <rect x="10" y="29" width="5" height="5"/>
      <rect x="65" y="29" width="5" height="5"/>
      <rect x="15" y="34" width="5" height="5"/>
      <rect x="60" y="34" width="5" height="5"/>
      <rect x="20" y="39" width="5" height="5"/>
      <rect x="55" y="39" width="5" height="5"/>
      <rect x="25" y="44" width="5" height="5"/>
      <rect x="50" y="44" width="5" height="5"/>
      <rect x="30" y="49" width="5" height="5"/>
      <rect x="45" y="49" width="5" height="5"/>
      <rect x="35" y="54" width="5" height="5"/>
      <rect x="40" y="54" width="5" height="5"/>
      <rect x="37.5" y="59" width="5" height="5"/>
    </g>
    
    <!-- Corazón principal -->
    <g fill="#ff6b8a">
      <!-- Parte superior -->
      <rect x="20" y="10" width="5" height="5"/>
      <rect x="25" y="10" width="5" height="5"/>
      <rect x="50" y="10" width="5" height="5"/>
      <rect x="55" y="10" width="5" height="5"/>
      
      <!-- Segunda fila -->
      <rect x="15" y="15" width="5" height="5"/>
      <rect x="20" y="15" width="5" height="5"/>
      <rect x="25" y="15" width="5" height="5"/>
      <rect x="30" y="15" width="5" height="5"/>
      <rect x="45" y="15" width="5" height="5"/>
      <rect x="50" y="15" width="5" height="5"/>
      <rect x="55" y="15" width="5" height="5"/>
      <rect x="60" y="15" width="5" height="5"/>
      
      <!-- Tercera fila -->
      <rect x="10" y="20" width="5" height="5"/>
      <rect x="15" y="20" width="5" height="5"/>
      <rect x="20" y="20" width="5" height="5"/>
      <rect x="25" y="20" width="5" height="5"/>
      <rect x="30" y="20" width="5" height="5"/>
      <rect x="35" y="20" width="5" height="5"/>
      <rect x="40" y="20" width="5" height="5"/>
      <rect x="45" y="20" width="5" height="5"/>
      <rect x="50" y="20" width="5" height="5"/>
      <rect x="55" y="20" width="5" height="5"/>
      <rect x="60" y="20" width="5" height="5"/>
      <rect x="65" y="20" width="5" height="5"/>
      
      <!-- Cuarta fila -->
      <rect x="10" y="25" width="5" height="5"/>
      <rect x="15" y="25" width="5" height="5"/>
      <rect x="20" y="25" width="5" height="5"/>
      <rect x="25" y="25" width="5" height="5"/>
      <rect x="30" y="25" width="5" height="5"/>
      <rect x="35" y="25" width="5" height="5"/>
      <rect x="40" y="25" width="5" height="5"/>
      <rect x="45" y="25" width="5" height="5"/>
      <rect x="50" y="25" width="5" height="5"/>
      <rect x="55" y="25" width="5" height="5"/>
      <rect x="60" y="25" width="5" height="5"/>
      <rect x="65" y="25" width="5" height="5"/>
      
      <!-- Quinta fila -->
      <rect x="10" y="30" width="5" height="5"/>
      <rect x="15" y="30" width="5" height="5"/>
      <rect x="20" y="30" width="5" height="5"/>
      <rect x="25" y="30" width="5" height="5"/>
      <rect x="30" y="30" width="5" height="5"/>
      <rect x="35" y="30" width="5" height="5"/>
      <rect x="40" y="30" width="5" height="5"/>
      <rect x="45" y="30" width="5" height="5"/>
      <rect x="50" y="30" width="5" height="5"/>
      <rect x="55" y="30" width="5" height="5"/>
      <rect x="60" y="30" width="5" height="5"/>
      <rect x="65" y="30" width="5" height="5"/>
      
      <!-- Sexta fila -->
      <rect x="15" y="35" width="5" height="5"/>
      <rect x="20" y="35" width="5" height="5"/>
      <rect x="25" y="35" width="5" height="5"/>
      <rect x="30" y="35" width="5" height="5"/>
      <rect x="35" y="35" width="5" height="5"/>
      <rect x="40" y="35" width="5" height="5"/>
      <rect x="45" y="35" width="5" height="5"/>
      <rect x="50" y="35" width="5" height="5"/>
      <rect x="55" y="35" width="5" height="5"/>
      <rect x="60" y="35" width="5" height="5"/>
      
      <!-- Séptima fila -->
      <rect x="20" y="40" width="5" height="5"/>
      <rect x="25" y="40" width="5" height="5"/>
      <rect x="30" y="40" width="5" height="5"/>
      <rect x="35" y="40" width="5" height="5"/>
      <rect x="40" y="40" width="5" height="5"/>
      <rect x="45" y="40" width="5" height="5"/>
      <rect x="50" y="40" width="5" height="5"/>
      <rect x="55" y="40" width="5" height="5"/>
      
      <!-- Octava fila -->
      <rect x="25" y="45" width="5" height="5"/>
      <rect x="30" y="45" width="5" height="5"/>
      <rect x="35" y="45" width="5" height="5"/>
      <rect x="40" y="45" width="5" height="5"/>
      <rect x="45" y="45" width="5" height="5"/>
      <rect x="50" y="45" width="5" height="5"/>
      
      <!-- Novena fila -->
      <rect x="30" y="50" width="5" height="5"/>
      <rect x="35" y="50" width="5" height="5"/>
      <rect x="40" y="50" width="5" height="5"/>
      <rect x="45" y="50" width="5" height="5"/>
      
      <!-- Décima fila -->
      <rect x="35" y="55" width="5" height="5"/>
      <rect x="40" y="55" width="5" height="5"/>
    </g>
    
    <!-- Brillos para dar efecto 3D -->
    <g fill="#ffadc1" opacity="0.6">
      <rect x="20" y="15" width="5" height="5"/>
      <rect x="15" y="20" width="5" height="5"/>
      <rect x="20" y="20" width="5" height="5"/>
      <rect x="55" y="15" width="5" height="5"/>
      <rect x="60" y="20" width="5" height="5"/>
      <rect x="55" y="20" width="5" height="5"/>
    </g>
  </g>
</svg>